<?xml version="1.0" standalone="no"?>
<!DOCTYPE svg PUBLIC "-//W3C//DTD SVG 20010904//EN"
 "http://www.w3.org/TR/2001/REC-SVG-20010904/DTD/svg10.dtd">
<svg version="1.0" xmlns="http://www.w3.org/2000/svg"
 width="666.000000pt" height="375.000000pt" viewBox="0 0 666.000000 375.000000"
 preserveAspectRatio="xMidYMid meet">

<g transform="translate(0.000000,375.000000) scale(0.100000,-0.100000)"
fill="#ffffff" stroke="none">
<path d="M2897 2175 c-4 -25 -20 -77 -37 -116 -30 -71 -36 -99 -22 -99 19 1
122 37 117 42 -3 3 -29 -3 -57 -14 -28 -10 -52 -17 -54 -15 -3 2 9 38 26 80
28 69 50 167 38 167 -3 0 -8 -20 -11 -45z"/>
<path d="M3145 2164 c-4 -31 -12 -73 -19 -93 -19 -52 -29 -120 -17 -101 6 8
11 23 11 32 0 9 5 29 10 44 l11 27 24 -33 c14 -19 25 -39 25 -46 0 -6 7 -15
16 -18 15 -6 2 22 -42 88 -11 16 -7 26 37 80 27 33 49 65 49 70 0 8 -46 -41
-87 -93 -11 -13 -12 -5 -7 42 4 31 4 57 2 57 -3 0 -9 -25 -13 -56z"/>
<path d="M3687 2145 c-3 -30 -17 -80 -31 -111 -21 -45 -29 -55 -43 -49 -14 5
-15 3 -6 -6 16 -16 30 -4 59 54 23 44 46 167 32 167 -3 0 -8 -25 -11 -55z"/>
<path d="M3532 2120 c0 -19 2 -27 5 -17 2 9 2 25 0 35 -3 9 -5 1 -5 -18z"/>
<path d="M3604 2102 c-1 -32 1 -41 7 -27 10 26 11 75 2 75 -5 0 -8 -21 -9 -48z"/>
<path d="M3585 2120 c-3 -5 -1 -10 4 -10 6 0 11 5 11 10 0 6 -2 10 -4 10 -3 0
-8 -4 -11 -10z"/>
<path d="M2916 2078 c-22 -31 -20 -45 2 -25 10 10 19 24 19 32 0 20 -3 19 -21
-7z"/>
<path d="M3555 2073 c-17 -25 -19 -26 -25 -8 -6 17 -8 16 -12 -8 -10 -52 17
-37 56 31 14 24 -2 12 -19 -15z"/>
<path d="M2984 2068 c-3 -11 -20 -28 -37 -39 -33 -20 -30 -27 3 -9 13 7 21 7
25 0 10 -16 41 -12 56 7 13 15 12 15 -8 5 -29 -16 -43 -15 -43 3 0 8 4 15 10
15 5 0 14 8 19 18 7 14 6 19 -4 19 -8 0 -17 -9 -21 -19z"/>
<path d="M3230 2059 c-7 -15 -9 -33 -5 -38 16 -26 73 2 90 44 8 19 8 19 12 2
3 -10 -4 -28 -14 -40 l-18 -22 23 19 c21 19 29 46 15 59 -3 4 -21 -9 -39 -28
-33 -36 -64 -46 -64 -20 0 8 4 15 10 15 5 0 14 8 19 18 7 14 6 19 -4 19 -8 0
-19 -13 -25 -28z"/>
<path d="M3737 2066 c3 -13 -1 -27 -8 -31 -9 -6 -11 -2 -6 16 6 23 5 23 -8 5
-11 -15 -12 -23 -3 -34 10 -12 14 -11 25 4 15 20 17 50 4 58 -4 3 -6 -5 -4
-18z"/>
<path d="M3769 2066 c-7 -14 -8 -33 -5 -43 7 -17 8 -17 22 1 16 23 18 52 4 61
-5 3 -15 -5 -21 -19z m12 -29 c-13 -13 -15 1 -4 30 7 17 8 17 11 -1 2 -10 -1
-23 -7 -29z"/>
<path d="M3391 2071 c-8 -5 -20 -7 -26 -5 -12 5 -29 -35 -19 -45 2 -2 17 8 32
22 16 15 31 24 35 20 4 -3 7 -1 7 5 0 14 -10 15 -29 3z"/>
<path d="M3430 2035 c-26 -42 -32 -44 -25 -7 4 22 4 24 -4 7 -27 -57 5 -61 37
-5 28 49 22 53 -8 5z"/>
</g>
</svg>
