<?xml version="1.0" encoding="UTF-8"?>
<svg width="247px" height="132px" viewBox="0 0 247 132" version="1.1" xmlns="http://www.w3.org/2000/svg" xmlns:xlink="http://www.w3.org/1999/xlink">
    <!-- Generator: Sketch 54.1 (76490) - https://sketchapp.com -->
    <title>WELCOME!ENJOYYOURSTAY</title>
    <desc>Created with Sketch.</desc>
    <g id="🎨-Design" stroke="none" stroke-width="1" fill="none" fill-rule="evenodd">
        <g id="NC644_PC000(1440)" transform="translate(-959.000000, -325.000000)" fill="#000000" fill-rule="nonzero">
            <g id="Group-6" transform="translate(-496.000000, -559.000000)">
                <path d="M1502.02,884.92 C1502.596,884.92 1502.884,885.16 1502.884,885.448 L1502.884,885.592 C1502.884,886.504 1501.252,886.408 1500.58,888.28 L1491.124,917.752 C1490.788,918.712 1489.972,919 1489.252,919 C1488.532,919 1487.908,918.616 1487.62,917.8 L1480.564,897.256 L1473.172,917.752 C1472.884,918.664 1472.164,919 1471.492,919 C1470.676,919 1470.196,918.664 1469.86,917.8 L1458.388,888.328 C1457.572,886.312 1455.94,886.552 1455.94,885.544 L1455.94,885.448 C1455.94,885.112 1456.276,884.92 1456.804,884.92 L1463.572,884.92 C1464.148,884.92 1464.484,885.16 1464.484,885.496 L1464.484,885.592 C1464.484,886.552 1462.276,886.504 1462.948,888.328 L1472.308,913.576 L1479.364,893.8 L1477.492,888.28 C1476.868,886.456 1475.092,886.408 1475.092,885.544 L1475.092,885.448 C1475.092,885.112 1475.38,884.92 1475.86,884.92 L1482.724,884.92 C1483.252,884.92 1483.54,885.112 1483.54,885.448 L1483.54,885.544 C1483.54,886.408 1481.236,886.312 1481.812,888.28 L1490.164,913.528 L1497.988,888.28 C1498.564,886.552 1496.356,886.552 1496.356,885.64 L1496.356,885.544 C1496.356,885.112 1496.692,884.92 1497.22,884.92 L1502.02,884.92 Z M1506.108,919 C1505.532,919 1505.1,918.808 1505.1,918.424 L1505.1,918.328 C1505.1,917.416 1506.876,917.416 1506.876,915.592 L1506.876,888.328 C1506.876,886.504 1505.1,886.456 1505.1,885.592 L1505.1,885.448 C1505.1,885.112 1505.436,884.92 1505.964,884.92 L1526.316,884.92 C1527.084,884.92 1527.372,885.304 1527.516,885.976 L1528.668,890.728 C1528.812,891.4 1528.572,891.688 1528.092,891.688 L1527.852,891.688 C1526.364,891.688 1525.212,886.888 1522.716,886.888 L1512.54,886.888 C1511.676,886.888 1511.196,887.368 1511.196,888.52 L1511.196,900.568 L1519.932,900.568 C1521.756,900.568 1521.708,897.736 1522.716,897.736 L1522.908,897.736 C1523.292,897.736 1523.532,898.024 1523.532,898.552 L1523.532,904.456 C1523.532,904.936 1523.292,905.272 1522.908,905.272 L1522.716,905.272 C1521.708,905.272 1521.756,902.536 1519.932,902.536 L1511.196,902.536 L1511.148,914.968 C1511.148,916.072 1511.724,917.032 1512.924,917.032 L1524.204,917.032 C1526.748,917.032 1527.564,912.088 1529.244,912.088 L1529.532,912.088 C1529.964,912.088 1530.204,912.52 1530.108,913.048 L1528.956,917.896 C1528.812,918.616 1528.476,919 1527.708,919 L1506.108,919 Z M1533.908,919 C1533.332,919 1532.948,918.76 1532.948,918.424 L1532.948,918.328 C1532.948,917.416 1534.676,917.32 1534.676,915.64 L1534.676,888.28 C1534.676,886.504 1532.948,886.552 1532.948,885.592 L1532.948,885.496 C1532.948,885.112 1533.332,884.92 1533.908,884.92 L1539.956,884.92 C1540.532,884.92 1540.916,885.112 1540.916,885.496 L1540.916,885.592 C1540.916,886.552 1539.044,886.504 1539.044,888.28 L1539.044,915.16 C1539.044,916.264 1539.572,917.032 1540.58,917.032 L1551.236,917.032 C1554.02,917.032 1554.596,911.752 1556.276,911.752 L1556.66,911.752 C1557.092,911.752 1557.332,912.04 1557.188,912.616 L1555.988,917.896 C1555.844,918.616 1555.508,919 1554.788,919 L1533.908,919 Z M1573.084,919.48 C1564.636,919.48 1556.908,911.128 1556.908,901.624 C1556.908,891.544 1563.628,884.488 1572.844,884.488 C1580.428,884.488 1585.948,889.912 1585.948,893.368 C1585.948,894.616 1585.18,895.432 1583.836,895.432 C1580.236,895.432 1580.524,886.456 1571.74,886.456 C1566.172,886.456 1561.228,891.64 1561.228,899.224 C1561.228,908.92 1567.516,915.64 1574.284,915.64 C1580.044,915.64 1583.356,911.224 1584.844,907.672 C1585.42,906.712 1586.908,906.904 1586.62,908.296 C1585.564,913.96 1581.052,919.48 1573.084,919.48 Z M1605.78,919.48 C1595.652,919.48 1588.692,911.128 1588.692,901.864 C1588.692,891.928 1595.556,884.44 1605.444,884.44 C1615.284,884.44 1622.1,892.552 1622.1,902.152 C1622.1,911.608 1615.044,919.48 1605.78,919.48 Z M1606.836,917.416 C1613.268,917.416 1617.78,911.512 1617.78,905.032 C1617.78,894.856 1612.164,886.504 1603.956,886.504 C1597.476,886.504 1593.012,891.88 1593.012,898.936 C1593.012,908.824 1598.628,917.416 1606.836,917.416 Z M1662.428,915.496 C1662.812,917.368 1664.396,917.416 1664.396,918.328 L1664.396,918.424 C1664.396,918.808 1664.012,919 1663.388,919 L1657.484,919 C1656.908,919 1656.524,918.808 1656.524,918.424 L1656.524,918.328 C1656.524,917.416 1658.492,917.368 1658.108,915.496 L1653.884,891.544 L1644.236,917.944 C1643.948,918.616 1643.66,918.952 1642.988,918.952 C1642.364,918.952 1641.98,918.664 1641.692,917.992 L1631.948,890.968 L1627.82,915.496 C1627.484,917.32 1629.644,917.416 1629.644,918.328 L1629.644,918.424 C1629.644,918.808 1629.26,919 1628.684,919 L1624.316,919 C1623.74,919 1623.356,918.808 1623.356,918.424 L1623.356,918.328 C1623.356,917.416 1624.94,917.32 1625.276,915.496 L1629.932,888.376 C1630.22,886.696 1628.348,886.648 1628.348,885.64 L1628.348,885.544 C1628.348,885.16 1628.636,884.92 1629.164,884.92 L1632.332,884.92 C1633.244,884.92 1633.916,885.352 1634.204,886.168 L1643.564,913.288 L1653.212,886.12 C1653.5,885.352 1654.028,884.92 1654.94,884.92 L1658.348,884.92 C1658.732,884.92 1659.068,885.112 1659.068,885.448 L1659.068,885.592 C1659.068,886.552 1657.052,886.696 1657.436,888.76 L1662.428,915.496 Z M1668.148,919 C1667.572,919 1667.14,918.808 1667.14,918.424 L1667.14,918.328 C1667.14,917.416 1668.916,917.416 1668.916,915.592 L1668.916,888.328 C1668.916,886.504 1667.14,886.456 1667.14,885.592 L1667.14,885.448 C1667.14,885.112 1667.476,884.92 1668.004,884.92 L1688.356,884.92 C1689.124,884.92 1689.412,885.304 1689.556,885.976 L1690.708,890.728 C1690.852,891.4 1690.612,891.688 1690.132,891.688 L1689.892,891.688 C1688.404,891.688 1687.252,886.888 1684.756,886.888 L1674.58,886.888 C1673.716,886.888 1673.236,887.368 1673.236,888.52 L1673.236,900.568 L1681.972,900.568 C1683.796,900.568 1683.748,897.736 1684.756,897.736 L1684.948,897.736 C1685.332,897.736 1685.572,898.024 1685.572,898.552 L1685.572,904.456 C1685.572,904.936 1685.332,905.272 1684.948,905.272 L1684.756,905.272 C1683.748,905.272 1683.796,902.536 1681.972,902.536 L1673.236,902.536 L1673.188,914.968 C1673.188,916.072 1673.764,917.032 1674.964,917.032 L1686.244,917.032 C1688.788,917.032 1689.604,912.088 1691.284,912.088 L1691.572,912.088 C1692.004,912.088 1692.244,912.52 1692.148,913.048 L1690.996,917.896 C1690.852,918.616 1690.516,919 1689.748,919 L1668.148,919 Z M1696.956,910.072 C1696.188,902.632 1695.756,889.816 1695.66,885.976 C1695.66,883.624 1700.412,883.528 1700.364,885.928 C1700.268,889.912 1699.74,902.632 1698.876,910.072 C1698.732,910.936 1697.1,910.936 1696.956,910.072 Z M1698.012,919.528 C1696.332,919.528 1694.94,918.52 1694.94,916.696 C1694.94,914.824 1696.332,913.768 1698.012,913.768 C1699.692,913.768 1701.036,914.824 1701.036,916.696 C1701.036,918.52 1699.692,919.528 1698.012,919.528 Z M1508.536,967 C1507.96,967 1507.528,966.808 1507.528,966.424 L1507.528,966.328 C1507.528,965.416 1509.304,965.416 1509.304,963.592 L1509.304,936.328 C1509.304,934.504 1507.528,934.456 1507.528,933.592 L1507.528,933.448 C1507.528,933.112 1507.864,932.92 1508.392,932.92 L1528.744,932.92 C1529.512,932.92 1529.8,933.304 1529.944,933.976 L1531.096,938.728 C1531.24,939.4 1531,939.688 1530.52,939.688 L1530.28,939.688 C1528.792,939.688 1527.64,934.888 1525.144,934.888 L1514.968,934.888 C1514.104,934.888 1513.624,935.368 1513.624,936.52 L1513.624,948.568 L1522.36,948.568 C1524.184,948.568 1524.136,945.736 1525.144,945.736 L1525.336,945.736 C1525.72,945.736 1525.96,946.024 1525.96,946.552 L1525.96,952.456 C1525.96,952.936 1525.72,953.272 1525.336,953.272 L1525.144,953.272 C1524.136,953.272 1524.184,950.536 1522.36,950.536 L1513.624,950.536 L1513.576,962.968 C1513.576,964.072 1514.152,965.032 1515.352,965.032 L1526.632,965.032 C1529.176,965.032 1529.992,960.088 1531.672,960.088 L1531.96,960.088 C1532.392,960.088 1532.632,960.52 1532.536,961.048 L1531.384,965.896 C1531.24,966.616 1530.904,967 1530.136,967 L1508.536,967 Z M1564.944,932.92 C1565.52,932.92 1565.904,933.16 1565.904,933.544 L1565.904,933.64 C1565.904,934.504 1563.984,934.552 1563.984,936.28 L1563.984,965.704 C1563.984,966.52 1563.552,967 1562.784,967 L1561.584,967 C1561.104,967 1560.672,966.712 1560.048,965.752 L1539.552,937.816 L1539.552,963.496 C1539.552,965.272 1541.616,965.416 1541.616,966.328 L1541.616,966.424 C1541.616,966.808 1541.184,967 1540.608,967 L1536.24,967 C1535.616,967 1535.28,966.808 1535.28,966.424 L1535.28,966.328 C1535.28,965.416 1537.104,965.272 1537.104,963.496 L1537.104,936.328 C1537.104,934.648 1535.28,934.648 1535.28,933.736 L1535.28,933.544 C1535.28,933.16 1535.616,932.92 1536.24,932.92 L1539.888,932.92 C1540.656,932.92 1541.184,933.256 1541.616,933.88 L1561.536,961.432 L1561.536,936.28 C1561.536,934.552 1559.568,934.504 1559.568,933.64 L1559.568,933.544 C1559.568,933.16 1559.952,932.92 1560.576,932.92 L1564.944,932.92 Z M1583.672,936.28 C1583.672,934.552 1581.896,934.504 1581.896,933.592 L1581.896,933.496 C1581.896,933.112 1582.28,932.92 1582.904,932.92 L1588.952,932.92 C1589.528,932.92 1589.864,933.112 1589.864,933.496 L1589.864,933.592 C1589.864,934.504 1588.04,934.552 1588.04,936.28 L1587.992,954.76 C1587.944,964.216 1583.624,967.432 1577.816,967.48 C1570.52,967.528 1567.832,962.632 1567.832,959.752 C1567.832,958.408 1568.648,957.544 1569.896,957.544 C1573.784,957.544 1571.288,965.512 1578.2,965.512 C1581.224,965.512 1583.672,962.584 1583.672,956.776 L1583.672,936.28 Z M1609.984,967.48 C1599.856,967.48 1592.896,959.128 1592.896,949.864 C1592.896,939.928 1599.76,932.44 1609.648,932.44 C1619.488,932.44 1626.304,940.552 1626.304,950.152 C1626.304,959.608 1619.248,967.48 1609.984,967.48 Z M1611.04,965.416 C1617.472,965.416 1621.984,959.512 1621.984,953.032 C1621.984,942.856 1616.368,934.504 1608.16,934.504 C1601.68,934.504 1597.216,939.88 1597.216,946.936 C1597.216,956.824 1602.832,965.416 1611.04,965.416 Z M1655.496,932.92 C1656.12,932.92 1656.456,933.112 1656.456,933.448 L1656.456,933.592 C1656.456,934.504 1655.016,934.36 1653.912,936.28 L1643.544,953.224 L1643.544,963.64 C1643.544,965.368 1645.368,965.416 1645.368,966.328 L1645.368,966.424 C1645.368,966.808 1645.032,967 1644.456,967 L1638.408,967 C1637.784,967 1637.448,966.808 1637.448,966.424 L1637.448,966.328 C1637.448,965.416 1639.176,965.368 1639.176,963.64 L1639.176,953.512 L1628.04,936.28 C1626.984,934.6 1625.4,934.504 1625.4,933.592 L1625.4,933.496 C1625.4,933.112 1625.784,932.92 1626.36,932.92 L1633.368,932.92 C1633.992,932.92 1634.328,933.112 1634.328,933.496 L1634.328,933.592 C1634.328,934.504 1631.928,934.696 1632.84,936.28 L1642.2,951.688 L1651.56,936.28 C1652.568,934.552 1649.928,934.504 1649.928,933.592 L1649.928,933.496 C1649.928,933.112 1650.216,932.92 1650.792,932.92 L1655.496,932.92 Z M1479.84,988.792 L1484.832,980.824 L1489.392,980.824 L1476.336,1001.272 L1476.336,1015 L1472.304,1015 L1472.304,1001.272 L1459.248,980.824 L1463.856,980.824 L1468.896,988.84 C1471.072,992.232 1472.896,995.176 1474.368,997.672 C1476.416,994.216 1478.24,991.256 1479.84,988.792 Z M1514.984,1010.824 C1511.976,1014.12 1508.008,1015.768 1503.08,1015.768 C1498.152,1015.768 1494.2,1014.12 1491.224,1010.824 C1488.216,1007.592 1486.712,1003.288 1486.712,997.912 C1486.712,992.568 1488.216,988.248 1491.224,984.952 C1494.2,981.688 1498.152,980.056 1503.08,980.056 C1508.008,980.056 1511.976,981.688 1514.984,984.952 C1517.96,988.28 1519.448,992.6 1519.448,997.912 C1519.448,1003.256 1517.96,1007.56 1514.984,1010.824 Z M1494.248,1008.232 C1496.456,1010.792 1499.4,1012.072 1503.08,1012.072 C1506.76,1012.072 1509.704,1010.792 1511.912,1008.232 C1514.12,1005.704 1515.224,1002.264 1515.224,997.912 C1515.224,993.56 1514.12,990.12 1511.912,987.592 C1509.704,985.032 1506.76,983.752 1503.08,983.752 C1499.4,983.752 1496.456,985.032 1494.248,987.592 C1492.04,990.12 1490.936,993.56 1490.936,997.912 C1490.936,1002.264 1492.04,1005.704 1494.248,1008.232 Z M1546.144,1012.216 C1543.808,1014.552 1540.496,1015.72 1536.208,1015.72 C1531.92,1015.72 1528.608,1014.552 1526.272,1012.216 C1523.936,1009.88 1522.768,1006.584 1522.768,1002.328 L1522.768,980.824 L1526.8,980.824 L1526.8,1002.328 C1526.8,1008.824 1529.936,1012.072 1536.208,1012.072 C1542.48,1012.072 1545.616,1008.824 1545.616,1002.328 L1545.616,980.824 L1549.648,980.824 L1549.648,1002.328 C1549.648,1006.584 1548.48,1009.88 1546.144,1012.216 Z M1579.512,1005.112 L1579.848,1010.632 C1580.008,1012.552 1580.424,1014.008 1581.096,1015 L1576.92,1015 C1576.216,1013.976 1575.848,1012.456 1575.816,1010.44 L1575.672,1006.792 C1575.576,1004.488 1575.064,1002.848 1574.136,1001.872 C1573.208,1000.896 1571.688,1000.408 1569.576,1000.408 L1558.44,1000.408 L1558.44,1015 L1554.408,1015 L1554.408,980.824 L1568.856,980.824 C1572.376,980.824 1575.184,981.64 1577.28,983.272 C1579.376,984.904 1580.424,987.192 1580.424,990.136 C1580.424,992.216 1579.92,993.968 1578.912,995.392 C1577.904,996.816 1576.536,997.816 1574.808,998.392 C1577.688,999.288 1579.256,1001.528 1579.512,1005.112 Z M1558.44,996.76 L1569.336,996.76 C1571.48,996.76 1573.168,996.208 1574.4,995.104 C1575.632,994 1576.248,992.424 1576.248,990.376 C1576.248,988.424 1575.6,986.952 1574.304,985.96 C1573.008,984.968 1571.192,984.472 1568.856,984.472 L1558.44,984.472 L1558.44,996.76 Z M1605.736,1015.48 C1596.328,1015.48 1592.2,1009.96 1592.2,1007.032 C1592.2,1005.928 1592.824,1005.112 1594.024,1005.112 C1597.48,1005.256 1596.28,1013.608 1605.928,1013.608 C1610.488,1013.608 1613.608,1010.968 1613.608,1007.176 C1613.608,995.224 1593.112,1004.248 1593.112,989.848 C1593.112,984.52 1597.432,980.488 1605.064,980.488 C1613.224,980.488 1617.496,985 1617.496,988.312 C1617.496,989.464 1616.824,990.232 1615.528,990.232 C1611.928,990.232 1613.752,982.36 1604.92,982.36 C1600.072,982.36 1597.48,985.192 1597.48,988.84 C1597.48,1000.024 1618.024,991.672 1618.024,1006.168 C1618.024,1011.928 1612.456,1015.48 1605.736,1015.48 Z M1629.6,1015 C1629.024,1015 1628.64,1014.808 1628.64,1014.424 L1628.64,1014.328 C1628.64,1013.416 1630.416,1013.368 1630.416,1011.64 L1630.416,982.984 L1623.888,982.984 C1621.44,982.984 1621.152,988.168 1619.76,988.168 L1619.328,988.168 C1618.848,988.168 1618.608,987.88 1618.704,987.208 L1619.472,981.976 C1619.568,981.304 1619.904,980.92 1620.672,980.92 L1644.528,980.92 C1645.296,980.92 1645.632,981.304 1645.776,981.976 L1646.832,987.256 C1646.976,987.88 1646.688,988.168 1646.256,988.168 L1645.776,988.168 C1644.384,988.168 1643.76,982.984 1641.36,982.984 L1634.736,982.984 L1634.736,1011.64 C1634.736,1013.368 1636.608,1013.416 1636.608,1014.328 L1636.608,1014.424 C1636.608,1014.808 1636.224,1015 1635.6,1015 L1629.6,1015 Z M1672.232,1011.64 C1673,1013.416 1674.536,1013.416 1674.536,1014.328 L1674.536,1014.424 C1674.536,1014.808 1674.2,1015 1673.624,1015 L1666.856,1015 C1666.28,1015 1665.944,1014.808 1665.944,1014.424 L1665.944,1014.328 C1665.944,1013.416 1668.2,1013.32 1667.576,1011.64 L1665.272,1005.976 L1649.72,1005.976 L1647.608,1011.64 C1646.936,1013.32 1649.24,1013.416 1649.24,1014.328 L1649.24,1014.424 C1649.24,1014.808 1648.856,1015 1648.232,1015 L1643.672,1015 C1643.048,1015 1642.712,1014.808 1642.712,1014.424 L1642.712,1014.328 C1642.712,1013.416 1644.296,1013.464 1644.968,1011.64 L1655.624,984.424 C1656.2,982.984 1654.136,982.36 1654.136,981.592 L1654.136,981.448 C1654.136,981.16 1654.328,980.92 1654.808,980.92 L1657.592,980.92 C1658.744,980.92 1659.368,981.352 1659.848,982.504 L1672.232,1011.64 Z M1650.536,1003.912 L1664.456,1003.912 L1657.256,986.104 L1650.536,1003.912 Z M1700.08,980.92 C1700.704,980.92 1701.04,981.112 1701.04,981.448 L1701.04,981.592 C1701.04,982.504 1699.6,982.36 1698.496,984.28 L1688.128,1001.224 L1688.128,1011.64 C1688.128,1013.368 1689.952,1013.416 1689.952,1014.328 L1689.952,1014.424 C1689.952,1014.808 1689.616,1015 1689.04,1015 L1682.992,1015 C1682.368,1015 1682.032,1014.808 1682.032,1014.424 L1682.032,1014.328 C1682.032,1013.416 1683.76,1013.368 1683.76,1011.64 L1683.76,1001.512 L1672.624,984.28 C1671.568,982.6 1669.984,982.504 1669.984,981.592 L1669.984,981.496 C1669.984,981.112 1670.368,980.92 1670.944,980.92 L1677.952,980.92 C1678.576,980.92 1678.912,981.112 1678.912,981.496 L1678.912,981.592 C1678.912,982.504 1676.512,982.696 1677.424,984.28 L1686.784,999.688 L1696.144,984.28 C1697.152,982.552 1694.512,982.504 1694.512,981.592 L1694.512,981.496 C1694.512,981.112 1694.8,980.92 1695.376,980.92 L1700.08,980.92 Z" id="WELCOME!ENJOYYOURSTAY"></path>
            </g>
        </g>
    </g>
</svg>